<?xml version="1.0" encoding="UTF-8"?>
<!DOCTYPE svg PUBLIC "-//W3C//DTD SVG 1.1//EN" "http://www.w3.org/Graphics/SVG/1.1/DTD/svg11.dtd">
<svg xmlns="http://www.w3.org/2000/svg" version="1.1" width="101px" height="107px" style="shape-rendering:geometricPrecision; text-rendering:geometricPrecision; image-rendering:optimizeQuality; fill-rule:evenodd; clip-rule:evenodd" xmlns:xlink="http://www.w3.org/1999/xlink">
<g><path style="opacity:1" fill="#A9A9A9" d="M 11.5,4.5 C 13.3904,4.2965 14.8904,4.96317 16,6.5C 16.3333,14.8333 16.6667,23.1667 17,31.5C 19,34.1667 21,34.1667 23,31.5C 23.3333,22.8333 23.6667,14.1667 24,5.5C 26.33,3.96832 28.33,4.30165 30,6.5C 30.3333,14.8333 30.6667,23.1667 31,31.5C 33,34.1667 35,34.1667 37,31.5C 37.3333,22.8333 37.6667,14.1667 38,5.5C 40,4.16667 42,4.16667 44,5.5C 44.6667,18.5 44.6667,31.5 44,44.5C 43.1177,47.5524 41.2844,49.8858 38.5,51.5C 37.6672,66.4889 37.1672,81.4889 37,96.5C 36.5,98.3333 35.3333,99.5 33.5,100C 29.1667,100.667 24.8333,100.667 20.5,100C 19,99.1667 17.8333,98 17,96.5C 16.8328,81.4889 16.3328,66.4889 15.5,51.5C 12.7156,49.8858 10.8823,47.5524 10,44.5C 9.33333,32.1667 9.33333,19.8333 10,7.5C 10.5133,6.47344 11.0133,5.47344 11.5,4.5 Z"/></g>
<g><path style="opacity:0.997" fill="#A9A9A9" d="M 62.5,4.5 C 70.0871,4.18583 77.5871,4.51916 85,5.5C 85.6667,36.1667 85.6667,66.8333 85,97.5C 82.6041,100.013 79.6041,101.013 76,100.5C 72.1604,100.961 68.827,99.961 66,97.5C 64.6576,86.9672 64.1576,76.6339 64.5,66.5C 60.2628,65.5954 56.0961,65.2621 52,65.5C 51.3333,49.1667 51.3333,32.8333 52,16.5C 53.9363,11.0678 57.4363,7.0678 62.5,4.5 Z"/></g>
</svg>
