<?xml version="1.0" encoding="UTF-8"?>
<!DOCTYPE svg PUBLIC "-//W3C//DTD SVG 1.1//EN" "http://www.w3.org/Graphics/SVG/1.1/DTD/svg11.dtd">
<svg xmlns="http://www.w3.org/2000/svg" version="1.1" width="127px" height="81px" style="shape-rendering:geometricPrecision; text-rendering:geometricPrecision; image-rendering:optimizeQuality; fill-rule:evenodd; clip-rule:evenodd" xmlns:xlink="http://www.w3.org/1999/xlink">
<g><path style="opacity:0.96" fill="#A9A9A9" d="M 9.5,2.5 C 13.1662,2.95784 16.6662,3.95784 20,5.5C 20.1764,18.7418 20.6764,31.9085 21.5,45C 53.1649,45.5 84.8316,45.6666 116.5,45.5C 116.631,54.3327 116.631,63.3327 116.5,72.5C 112.167,72.5 107.833,72.5 103.5,72.5C 103.5,68.1667 103.5,63.8333 103.5,59.5C 75.8652,60.4746 48.1985,60.8079 20.5,60.5C 20.5,64.5 20.5,68.5 20.5,72.5C 15.8333,72.5 11.1667,72.5 6.5,72.5C 7.00149,66.1611 6.33483,59.9944 4.5,54C 5,52.5 5.5,51 6,49.5C 6.66667,37.5 6.66667,25.5 6,13.5C 3.71803,8.73161 4.8847,5.06495 9.5,2.5 Z"/></g>
<g><path style="opacity:0.875" fill="#A9A9A9" d="M 26.5,35.5 C 27.1331,35.1205 27.7997,34.7871 28.5,34.5C 28.0234,33.069 27.3567,31.7357 26.5,30.5C 25.8165,30.8627 25.1499,31.1961 24.5,31.5C 23.8513,18.9874 29.8513,13.4874 42.5,15C 49.9992,18.4994 52.8325,24.3327 51,32.5C 47.2192,40.3047 41.0525,43.138 32.5,41C 30.0038,39.669 28.0038,37.8356 26.5,35.5 Z"/></g>
<g><path style="opacity:0.926" fill="#A9A9A9" d="M 57.5,17.5 C 69.1714,17.3335 80.8381,17.5001 92.5,18C 108.245,17.2444 116.578,24.7444 117.5,40.5C 96.5106,41.4997 75.5106,41.833 54.5,41.5C 54.3337,34.825 54.5004,28.1583 55,21.5C 55.4796,19.867 56.3129,18.5336 57.5,17.5 Z"/></g>
<g><path style="opacity:0.809" fill="#A9A9A9" d="M 26.5,35.5 C 25.3263,34.4863 24.6596,33.153 24.5,31.5C 25.1499,31.1961 25.8165,30.8627 26.5,30.5C 27.3567,31.7357 28.0234,33.069 28.5,34.5C 27.7997,34.7871 27.1331,35.1205 26.5,35.5 Z"/></g>
</svg>
