<?xml version="1.0" encoding="UTF-8"?>
<!DOCTYPE svg PUBLIC "-//W3C//DTD SVG 1.1//EN" "http://www.w3.org/Graphics/SVG/1.1/DTD/svg11.dtd">
<svg xmlns="http://www.w3.org/2000/svg" version="1.1" width="109px" height="88px" style="shape-rendering:geometricPrecision; text-rendering:geometricPrecision; image-rendering:optimizeQuality; fill-rule:evenodd; clip-rule:evenodd" xmlns:xlink="http://www.w3.org/1999/xlink">
<g><path style="opacity:0.99" fill="#A9A9A9" d="M 65.5,5.5 C 66.6431,5.90814 67.6431,6.57481 68.5,7.5C 61.5801,31.0984 54.7468,54.765 48,78.5C 46.2302,79.2764 44.3969,79.1097 42.5,78C 41.9415,77.2753 41.6082,76.4419 41.5,75.5C 47.8405,52.815 54.1738,30.1483 60.5,7.5C 62.5529,7.59794 64.2196,6.93127 65.5,5.5 Z"/></g>
<g><path style="opacity:1" fill="#A9A9A9" d="M 30.5,15.5 C 34.8509,15.2049 36.6842,17.2049 36,21.5C 29.1667,28.3333 22.3333,35.1667 15.5,42C 22.3333,48.8333 29.1667,55.6667 36,62.5C 36.8333,67 35,68.8333 30.5,68C 21.79,59.6247 13.4567,50.9581 5.5,42C 13.6593,33.0072 21.9927,24.1739 30.5,15.5 Z"/></g>
<g><path style="opacity:0.999" fill="#A9A9A9" d="M 75.5,15.5 C 76.9217,15.7086 78.255,16.2086 79.5,17C 87.9559,24.9267 95.9559,33.26 103.5,42C 96.0026,51.9973 87.3359,60.8306 77.5,68.5C 74.6614,67.8383 73.1614,66.1716 73,63.5C 80.2109,56.6242 87.0442,49.4575 93.5,42C 86.8774,34.3758 79.8774,27.0424 72.5,20C 73.3862,18.3853 74.3862,16.8853 75.5,15.5 Z"/></g>
</svg>
